<svg width="20" height="20" viewBox="0 0 20 20" fill="none" xmlns="http://www.w3.org/2000/svg">
<g>
<path d="M15.25 4.75831C14.925 4.43331 14.4 4.43331 14.075 4.75831L9.99998 8.82498L5.92498 4.74998C5.59998 4.42498 5.07498 4.42498 4.74998 4.74998C4.42498 5.07498 4.42498 5.59998 4.74998 5.92498L8.82498 9.99998L4.74998 14.075C4.42498 14.4 4.42498 14.925 4.74998 15.25C5.07498 15.575 5.59998 15.575 5.92498 15.25L9.99998 11.175L14.075 15.25C14.4 15.575 14.925 15.575 15.25 15.25C15.575 14.925 15.575 14.4 15.25 14.075L11.175 9.99998L15.25 5.92498C15.5666 5.60831 15.5666 5.07498 15.25 4.75831Z" fill="#898787"/>
</g>
</svg>
