<svg width="16" height="16" viewBox="0 0 16 16" fill="none" xmlns="http://www.w3.org/2000/svg">
<g>
<path id="Vector" d="M11.4957 4.64504C10.3725 4.58744 9.37412 5.06744 8.72132 5.85944C8.72132 5.85944 7.98692 6.80984 7.98692 6.80504C7.98692 6.80504 7.06052 8.01944 7.06532 8.01944L6.26852 9.06585L6.20612 9.14745C5.75012 9.75705 4.94372 10.0978 4.09412 9.84825C3.45092 9.65625 2.94692 9.11864 2.80292 8.46584C2.51972 7.22264 3.46532 6.11384 4.66052 6.11384C5.24132 6.11384 5.67332 6.35864 5.97092 6.61784C6.28772 6.89624 6.77252 6.85304 7.03172 6.51704C7.25732 6.22424 7.22852 5.80184 6.95972 5.55224C5.44292 4.16024 2.57252 4.47704 1.65572 6.41144C0.465322 8.92184 2.27972 11.3986 4.66052 11.3986C5.70692 11.3986 6.64292 10.933 7.26212 10.1842L7.46852 9.91544C7.46852 9.91544 7.99172 9.22904 7.99172 9.23384C7.99172 9.23384 8.91812 8.01944 8.91332 8.01944L9.72452 6.95864C9.74372 6.93464 9.76292 6.91064 9.78212 6.88664C10.1997 6.32024 10.9197 5.99864 11.7117 6.15224C12.4125 6.29144 12.9933 6.83864 13.1661 7.53464C13.4829 8.79705 12.5325 9.93465 11.3181 9.93465C10.7469 9.93465 10.3149 9.68985 10.0173 9.42585C9.70052 9.14745 9.21092 9.19545 8.95652 9.53145C8.72132 9.83864 8.76452 10.2658 9.05252 10.525C9.49892 10.9234 10.2621 11.4082 11.3181 11.4082C13.3341 11.4082 14.9421 9.63704 14.6685 7.56824C14.4573 5.97464 13.0941 4.72664 11.4957 4.64504Z" fill="#ADB5BD"/>
</g>
</svg>
